<?xml version="1.0" encoding="UTF-8" standalone="no"?>
<!-- Created with Inkscape (http://www.inkscape.org/) -->

<svg
   xmlns:dc="http://purl.org/dc/elements/1.1/"
   xmlns:cc="http://creativecommons.org/ns#"
   xmlns:rdf="http://www.w3.org/1999/02/22-rdf-syntax-ns#"
   xmlns:svg="http://www.w3.org/2000/svg"
   xmlns="http://www.w3.org/2000/svg"
   xmlns:sodipodi="http://sodipodi.sourceforge.net/DTD/sodipodi-0.dtd"
   xmlns:inkscape="http://www.inkscape.org/namespaces/inkscape"
   version="1.1"
   id="svg871"
   xml:space="preserve"
   width="371.32117"
   height="75.126724"
   viewBox="0 0 371.32117 75.126724"
   sodipodi:docname="logo.svg"
   inkscape:version="0.92.5 (2060ec1f9f, 2020-04-08)"><metadata
     id="metadata877"><rdf:RDF><cc:Work
         rdf:about=""><dc:format>image/svg+xml</dc:format><dc:type
           rdf:resource="http://purl.org/dc/dcmitype/StillImage" /><dc:title></dc:title></cc:Work></rdf:RDF></metadata><defs
     id="defs875"><clipPath
       clipPathUnits="userSpaceOnUse"
       id="clipPath887"><path
         d="M 0,612 H 792 V 0 H 0 Z"
         id="path885"
         inkscape:connector-curvature="0" /></clipPath></defs><sodipodi:namedview
     pagecolor="#ffffff"
     bordercolor="#666666"
     borderopacity="1"
     objecttolerance="10"
     gridtolerance="10"
     guidetolerance="10"
     inkscape:pageopacity="0"
     inkscape:pageshadow="2"
     inkscape:window-width="1920"
     inkscape:window-height="1015"
     id="namedview873"
     showgrid="false"
     inkscape:zoom="1.0147059"
     inkscape:cx="169.76834"
     inkscape:cy="-23.845347"
     inkscape:window-x="0"
     inkscape:window-y="0"
     inkscape:window-maximized="1"
     inkscape:current-layer="g879" /><g
     id="g879"
     inkscape:groupmode="layer"
     inkscape:label="vertical-logo"
     transform="matrix(1.3333333,0,0,-1.3333333,-347.88384,467.55178)"><g
       id="g952"
       transform="matrix(0.83558316,0,0,0.83558316,-14.452962,48.390968)"
       style="fill:#27ae60;fill-opacity:1"><path
         d="m 406.4053,361.2798 -7.366,0.471 -1.39,-21.664 h 4.223 v 6.726 c 0,5.959 1.507,10.772 4.533,14.467 m -59.087,-66.065 -13.681,-0.896 -4.088,63.236 63.237,4.09 1.416,-21.9 c -0.588,0.099 -1.208,0.15 -1.861,0.15 -4.756,0 -9.421,-3.617 -13.978,-10.851 h -0.218 v 12.025 c -3.454,-0.957 -7.83,-1.428 -13.127,-1.428 h -17.705 v -2.134 h 6.728 v -39.729 h -6.728 z m 49.428,3.184 -18.601,-0.621 v 25.371 c 0,0.723 0.442,1.957 1.322,3.725 0.875,1.76 1.97,3.238 3.235,4.449 l 0.218,-0.217 c -0.218,-0.451 -0.327,-1.123 -0.327,-1.953 0,-2.441 0.833,-4.467 2.498,-6.076 1.663,-1.61 3.76,-2.406 6.31,-2.406 1.446,0 2.776,0.279 3.981,0.836 l 0.539,-8.338 0.575,8.953 c 0.626,0.408 1.212,0.9 1.758,1.478 1.862,1.971 2.785,4.397 2.785,7.287 0,2.768 -0.796,4.955 -2.37,6.565 -0.183,0.193 -0.375,0.375 -0.576,0.545 h 3.779 v -39.928 z m 65.532,59.293 -28.577,1.834 c 0.248,-0.93 0.371,-1.914 0.371,-2.959 0,-2.654 -0.886,-4.85 -2.673,-6.551 -1.769,-1.715 -4.037,-2.564 -6.763,-2.564 -2.796,0 -5.081,0.795 -6.85,2.371 -1.753,1.594 -2.639,3.664 -2.639,6.23 0,1.741 0.321,3.276 0.958,4.604 l -2.727,0.174 c -0.998,-1.805 -1.505,-3.862 -1.505,-6.174 0,-3.117 0.814,-5.897 2.426,-8.356 1.592,-2.462 3.381,-4.107 5.327,-4.959 1.966,-0.832 4.445,-1.255 7.454,-1.255 h 5.912 v -2.09 h -7.524 v -41.442 l 32.75,-2.102 z"
         style="fill:#27ae60;fill-opacity:1;fill-rule:evenodd;stroke:none"
         id="path891"
         inkscape:connector-curvature="0" /><g
         style="fill:#27ae60;fill-opacity:1"
         transform="matrix(1.4722619,0,0,1.4722619,-18.132935,-70.011451)"
         id="g933"><path
           inkscape:connector-curvature="0"
           id="path895"
           style="fill:#27ae60;fill-opacity:1;fill-rule:nonzero;stroke:none"
           d="m 349.6875,287.291 v -1.377 h 0.06 c 0.25,0.492 0.659,0.854 1.234,1.092 0.569,0.242 1.201,0.359 1.896,0.359 0.676,0 1.23,-0.097 1.656,-0.291 0.425,-0.191 0.637,-0.429 0.637,-0.711 0,-0.24 -0.16,-0.435 -0.484,-0.582 -0.319,-0.146 -0.712,-0.22 -1.17,-0.22 -0.458,0 -0.845,0.066 -1.175,0.205 -0.323,0.136 -0.488,0.289 -0.488,0.455 0,0.207 0.089,0.351 0.27,0.435 0.18,0.084 0.271,0.137 0.271,0.16 0,0.045 -0.079,0.069 -0.244,0.069 -0.521,0 -1.016,-0.203 -1.488,-0.61 -0.474,-0.404 -0.713,-1.064 -0.713,-1.978 v -1.713 h 2.323 v -0.379 h -8.194 v 0.379 h 1.621 v 4.246 h -1.621 v 0.385 h 2.073 c 1.101,0 1.911,0.012 2.432,0.039 l 0.557,0.037 z" /><path
           inkscape:connector-curvature="0"
           id="path899"
           style="fill:#27ae60;fill-opacity:1;fill-rule:nonzero;stroke:none"
           d="m 369.8857,287.0469 c -0.553,0 -0.995,-0.053 -1.324,-0.156 -0.335,-0.108 -0.537,-0.268 -0.607,-0.489 -0.075,-0.216 -0.111,-0.785 -0.111,-1.701 0,-0.89 0.031,-1.439 0.102,-1.642 0.069,-0.203 0.275,-0.367 0.621,-0.496 0.351,-0.125 0.819,-0.188 1.408,-0.188 0.479,0 0.899,0.055 1.257,0.164 0.36,0.108 0.572,0.307 0.647,0.598 0.075,0.289 0.108,0.777 0.108,1.467 0,1.072 -0.102,1.748 -0.31,2.027 -0.207,0.279 -0.809,0.416 -1.791,0.416 m 0,-4.996 c -2.09,0 -3.754,0.266 -5.005,0.795 -1.243,0.531 -1.867,1.15 -1.867,1.855 0,0.715 0.634,1.336 1.899,1.867 1.272,0.532 2.925,0.797 4.973,0.797 2.068,0 3.731,-0.263 5.008,-0.787 1.27,-0.525 1.909,-1.15 1.909,-1.877 0,-0.72 -0.633,-1.343 -1.893,-1.865 -1.265,-0.523 -2.94,-0.785 -5.024,-0.785" /><path
           inkscape:connector-curvature="0"
           id="path903"
           style="fill:#27ae60;fill-opacity:1;fill-rule:nonzero;stroke:none"
           d="m 390.4639,287.3652 v -1.059 h 0.064 c 1.101,0.707 2.644,1.059 4.627,1.059 0.882,0 1.66,-0.074 2.324,-0.225 0.666,-0.148 1.084,-0.302 1.27,-0.457 0.181,-0.154 0.272,-0.39 0.272,-0.707 v -3.392 h 1.775 v -0.379 h -7.837 v 0.379 h 1.808 v 3.484 c 0,0.318 -0.107,0.522 -0.32,0.617 -0.212,0.096 -0.51,0.145 -0.893,0.145 -0.522,0 -1.165,-0.131 -1.936,-0.393 -0.765,-0.261 -1.154,-0.72 -1.154,-1.375 v -2.478 h 1.825 v -0.379 h -7.882 v 0.379 h 1.81 v 4.246 h -1.776 v 0.385 h 1.137 c 1.028,0 2.042,0.025 3.053,0.076 l 1.387,0.074 z" /><path
           inkscape:connector-curvature="0"
           id="path907"
           style="fill:#27ae60;fill-opacity:1;fill-rule:nonzero;stroke:none"
           d="m 416.1758,283.9238 v 0.809 c -1.398,-0.02 -2.376,-0.11 -2.925,-0.264 -0.553,-0.154 -0.829,-0.416 -0.829,-0.781 0,-0.284 0.175,-0.504 0.516,-0.666 0.341,-0.162 0.787,-0.243 1.324,-0.243 0.61,0 1.084,0.081 1.419,0.243 0.331,0.162 0.495,0.463 0.495,0.902 m 0,1.139 v 1.119 c 0,0.305 -0.091,0.517 -0.277,0.642 -0.186,0.123 -0.664,0.186 -1.435,0.186 -0.612,0 -1.09,-0.035 -1.432,-0.109 -0.344,-0.073 -0.514,-0.145 -0.514,-0.221 0,-0.049 0.122,-0.123 0.366,-0.225 0.244,-0.097 0.367,-0.22 0.367,-0.373 0,-0.213 -0.202,-0.4 -0.611,-0.554 -0.404,-0.157 -0.909,-0.235 -1.526,-0.235 -0.559,0 -1.042,0.074 -1.447,0.221 -0.404,0.144 -0.606,0.328 -0.606,0.539 0,0.363 0.543,0.674 1.628,0.93 1.084,0.255 2.59,0.382 4.508,0.382 1.485,0 2.728,-0.074 3.732,-0.224 1.001,-0.149 1.501,-0.485 1.501,-1.006 v -2.629 c 0,-0.453 0.318,-0.678 0.951,-0.678 0.176,0 0.42,0.041 0.735,0.119 l 0.418,-0.281 c -0.881,-0.412 -1.908,-0.615 -3.067,-0.615 -1.218,0 -2.232,0.25 -3.057,0.752 -1.356,-0.502 -2.872,-0.752 -4.531,-0.752 -1.122,0 -2.004,0.117 -2.648,0.352 -0.644,0.234 -0.967,0.525 -0.967,0.875 0,1.105 2.637,1.703 7.912,1.785" /><path
           inkscape:connector-curvature="0"
           id="path911"
           style="fill:#27ae60;fill-opacity:1;fill-rule:nonzero;stroke:none"
           d="m 435.7178,290.6699 v -8.086 h 1.309 v -0.379 h -6.965 v 0.379 h 1.403 v 7.588 h -1.403 v 0.381 c 1.307,0 2.604,0.017 3.881,0.06 l 1.259,0.057 z" /><path
           inkscape:connector-curvature="0"
           id="path915"
           style="fill:#27ae60;fill-opacity:1;fill-rule:nonzero;stroke:none"
           d="m 453.1396,284.1406 v 1.338 c 0,0.517 -0.24,0.904 -0.724,1.154 -0.483,0.252 -0.979,0.377 -1.489,0.377 -0.393,0 -0.701,-0.088 -0.919,-0.265 -0.218,-0.18 -0.325,-0.541 -0.325,-1.086 v -1.872 c 0,-0.519 0.079,-0.867 0.238,-1.044 0.16,-0.18 0.458,-0.27 0.884,-0.27 0.446,0 0.947,0.119 1.499,0.35 0.559,0.23 0.836,0.672 0.836,1.318 m 4.237,6.529 v -8.095 h 1.697 v -0.37 h -1.947 c -0.633,0 -1.222,-0.005 -1.775,-0.017 l -1.776,-0.055 h -0.436 v 0.752 h -0.065 c -0.664,-0.555 -1.696,-0.834 -3.1,-0.834 -1.361,0 -2.553,0.262 -3.573,0.785 -1.022,0.526 -1.537,1.176 -1.537,1.948 0,0.744 0.521,1.357 1.558,1.847 1.042,0.489 2.243,0.735 3.617,0.735 1.163,0 2.196,-0.211 3.1,-0.635 v 3.441 h -2.527 v 0.381 h 2.229 c 0.51,0 1.361,0.018 2.558,0.059 1.19,0.039 1.854,0.058 1.977,0.058" /><path
           inkscape:connector-curvature="0"
           id="path919"
           style="fill:#27ae60;fill-opacity:1;fill-rule:nonzero;stroke:none"
           d="m 331.4229,275.916 v 2.703 c 0,2.649 0.529,4.733 1.59,6.272 1.062,1.537 2.344,2.304 3.844,2.304 1.09,0 2.003,-0.441 2.722,-1.324 0.728,-0.889 1.089,-1.992 1.089,-3.33 0,-1.068 -0.254,-1.949 -0.768,-2.635 -0.508,-0.689 -1.16,-1.029 -1.942,-1.029 -0.803,0 -1.458,0.318 -1.967,0.953 -0.502,0.641 -0.755,1.473 -0.755,2.504 0,1.916 0.685,3.211 2.052,3.881 v 0.084 l -0.341,0.035 c -0.706,0 -1.321,-0.441 -1.855,-1.33 -0.528,-0.889 -0.798,-1.963 -0.798,-3.233 0,-1.251 0.235,-2.369 0.697,-3.359 0.457,-0.988 0.97,-1.65 1.53,-1.992 0.564,-0.334 1.275,-0.504 2.139,-0.504 h 1.698 v -0.842 h -2.16 v -15.638 h 2.16 v -0.854 h -10.856 v 0.854 h 1.921 v 15.638 h -1.921 v 0.842 z" /><path
           inkscape:connector-curvature="0"
           id="path923"
           style="fill:#27ae60;fill-opacity:1;fill-rule:nonzero;stroke:none"
           d="m 351.2539,268.1992 v 4.939 c 0,1.516 -0.447,2.272 -1.343,2.272 -0.98,0 -1.472,-0.756 -1.472,-2.272 v -4.939 z m 5.123,-0.861 h -7.938 v -3.709 c 0,-1.182 0.05,-2.022 0.147,-2.52 0.101,-0.506 0.295,-0.91 0.583,-1.23 0.286,-0.321 0.646,-0.485 1.073,-0.485 0.89,0 1.829,0.42 2.806,1.252 0.976,0.834 1.845,1.965 2.597,3.403 l 0.478,-0.733 c -1.916,-3.531 -4.233,-5.297 -6.954,-5.297 -2.255,0 -4.131,0.848 -5.635,2.535 -1.504,1.688 -2.257,3.78 -2.257,6.262 0,2.67 0.767,4.906 2.302,6.707 1.53,1.801 3.452,2.705 5.753,2.705 1.795,0 3.35,-0.797 4.651,-2.392 1.305,-1.594 2.104,-3.758 2.394,-6.498" /><path
           inkscape:connector-curvature="0"
           id="path927"
           style="fill:#27ae60;fill-opacity:1;fill-rule:nonzero;stroke:none"
           d="m 365.8906,271.7441 c 1.28,2.848 2.592,4.27 3.929,4.27 0.748,0 1.341,-0.321 1.778,-0.961 0.441,-0.635 0.666,-1.495 0.666,-2.582 0,-1.141 -0.259,-2.094 -0.783,-2.87 -0.518,-0.769 -1.163,-1.154 -1.926,-1.154 -0.717,0 -1.307,0.313 -1.773,0.947 -0.468,0.635 -0.702,1.432 -0.702,2.393 0,0.326 0.031,0.59 0.091,0.768 l -0.06,0.085 c -0.356,-0.476 -0.661,-1.06 -0.91,-1.751 -0.244,-0.698 -0.372,-1.182 -0.372,-1.465 v -9.989 h 1.983 v -0.853 h -10.648 v 0.853 h 1.892 v 15.639 h -1.892 v 0.842 h 4.975 c 1.49,0 2.721,0.183 3.69,0.56 v -4.732 z" /><path
           inkscape:connector-curvature="0"
           id="path931"
           style="fill:#27ae60;fill-opacity:1;fill-rule:nonzero;stroke:none"
           d="m 374.9111,255.7285 c -0.178,-0.42 -0.264,-0.889 -0.264,-1.424 0,-1.287 0.565,-2.371 1.702,-3.23 1.139,-0.864 2.597,-1.291 4.386,-1.291 1.358,0 2.414,0.252 3.171,0.763 0.752,0.506 1.133,1.203 1.133,2.092 0,0.613 -0.182,1.125 -0.542,1.531 -0.367,0.413 -1.261,0.62 -2.689,0.62 l -3.874,-0.229 c -1.34,0 -2.347,0.385 -3.023,1.168 m 7.359,10.754 v 6.969 c 0,1.302 -0.38,1.959 -1.133,1.959 -0.873,0 -1.311,-0.657 -1.311,-1.959 v -6.969 c 0,-1.387 0.417,-2.086 1.25,-2.086 0.799,0 1.194,0.699 1.194,2.086 m -4.854,-1.998 c -0.486,-0.35 -0.731,-0.748 -0.731,-1.211 0,-0.762 0.701,-1.145 2.099,-1.145 h 1.133 l 1.768,0.041 h 1.459 c 3.726,0 5.585,-1.957 5.585,-5.857 0,-2.299 -0.755,-4.113 -2.271,-5.453 -1.514,-1.346 -3.568,-2.014 -6.17,-2.014 -1.956,0 -3.537,0.449 -4.751,1.352 -1.211,0.906 -1.815,2.058 -1.815,3.467 0,0.732 0.259,1.587 0.772,2.562 -0.554,0.904 -0.833,1.879 -0.833,2.918 0,2.242 1.026,4.102 3.085,5.588 -2.196,1.195 -3.293,2.904 -3.293,5.131 0,1.865 0.645,3.388 1.931,4.578 1.286,1.189 3.008,1.787 5.173,1.787 0.774,0 1.51,-0.107 2.202,-0.312 0.279,1.343 0.742,2.412 1.387,3.208 0.645,0.79 1.327,1.188 2.053,1.188 0.519,0 0.941,-0.213 1.275,-0.639 0.331,-0.42 0.5,-0.976 0.5,-1.66 0,-0.66 -0.169,-1.222 -0.5,-1.672 -0.334,-0.455 -0.747,-0.683 -1.245,-0.683 -0.488,0 -0.879,0.199 -1.179,0.597 -0.294,0.401 -0.442,0.912 -0.442,1.553 0,0.305 0.031,0.525 0.103,0.67 l -0.063,0.084 c -0.645,-0.584 -1.091,-1.508 -1.351,-2.775 3.501,-1.098 5.256,-3.147 5.256,-6.151 0,-2.027 -0.748,-3.517 -2.247,-4.463 -1.5,-0.947 -3.193,-1.416 -5.079,-1.416 -1.38,0 -2.651,0.241 -3.811,0.727" /><path
           inkscape:connector-curvature="0"
           id="path935"
           style="fill:#27ae60;fill-opacity:1;fill-rule:nonzero;stroke:none"
           d="m 409.0391,258.582 h -8.473 v 2.215 c -1.657,-1.852 -3.364,-2.778 -5.122,-2.778 -1.089,0 -2.039,0.342 -2.852,1.034 -0.808,0.689 -1.209,1.957 -1.209,3.806 v 12.215 h -1.58 v 0.842 h 4.99 c 1.002,0 2.124,0.184 3.364,0.561 v -13.325 c 0,-0.961 0.057,-1.601 0.179,-1.922 0.117,-0.32 0.319,-0.476 0.609,-0.476 0.534,0 1.077,0.398 1.621,1.209 v 13.111 h -1.712 v 0.842 h 5.183 c 1.113,0 2.217,0.184 3.319,0.561 v -17.041 h 1.683 z" /><path
           inkscape:connector-curvature="0"
           id="path939"
           style="fill:#27ae60;fill-opacity:1;fill-rule:nonzero;stroke:none"
           d="m 422.0938,269.2598 c -0.218,2.143 -0.899,3.701 -2.053,4.684 -1.153,0.976 -2.307,1.466 -3.47,1.466 -0.335,0 -0.61,-0.099 -0.818,-0.298 -0.209,-0.207 -0.31,-0.457 -0.31,-0.764 0,-0.348 0.107,-0.641 0.325,-0.889 0.218,-0.242 0.554,-0.511 0.996,-0.818 1.88,-1.338 3.16,-2.285 3.857,-2.848 0.697,-0.56 1.23,-1.082 1.611,-1.545 0.377,-0.468 0.667,-1.052 0.869,-1.765 0.203,-0.703 0.306,-1.465 0.306,-2.27 0,-1.879 -0.529,-3.381 -1.591,-4.504 -1.063,-1.127 -2.496,-1.689 -4.29,-1.689 -2.063,0 -3.848,0.677 -5.346,2.021 l -1.952,-2.148 v 7.986 h 0.64 c 0.132,-1.973 0.753,-3.545 1.871,-4.721 1.119,-1.173 2.49,-1.763 4.116,-1.763 0.895,0 1.343,0.469 1.343,1.402 0,0.385 -0.093,0.705 -0.281,0.947 -0.183,0.241 -0.508,0.469 -0.969,0.676 -2.456,1.18 -4.173,2.391 -5.155,3.637 -0.981,1.246 -1.473,2.598 -1.473,4.057 0,1.921 0.543,3.503 1.631,4.748 1.087,1.238 2.465,1.865 4.131,1.865 1.388,0 2.841,-0.584 4.361,-1.752 l 2.293,1.892 v -7.607 z" /><path
           inkscape:connector-curvature="0"
           id="path943"
           style="fill:#27ae60;fill-opacity:1;fill-rule:nonzero;stroke:none"
           d="m 434.6328,261.5234 v 11.281 c 0,1.004 -0.102,1.694 -0.3,2.078 -0.198,0.377 -0.559,0.569 -1.082,0.569 -0.518,0 -0.88,-0.213 -1.089,-0.633 -0.208,-0.426 -0.314,-1.152 -0.314,-2.178 v -11.117 c 0,-0.977 0.096,-1.66 0.29,-2.051 0.193,-0.398 0.522,-0.597 0.99,-0.597 0.555,0 0.945,0.199 1.169,0.605 0.225,0.406 0.336,1.08 0.336,2.043 m -1.382,14.705 c 2.628,0 4.715,-0.877 6.256,-2.611 1.545,-1.739 2.317,-4.059 2.317,-6.963 0,-2.627 -0.778,-4.727 -2.327,-6.293 -1.555,-1.557 -3.65,-2.342 -6.277,-2.342 -2.571,0 -4.636,0.813 -6.195,2.428 -1.561,1.623 -2.337,3.744 -2.337,6.369 0,2.828 0.776,5.098 2.337,6.82 1.559,1.723 3.634,2.592 6.226,2.592" /><path
           inkscape:connector-curvature="0"
           id="path947"
           style="fill:#27ae60;fill-opacity:1;fill-rule:nonzero;stroke:none"
           d="m 462.5342,258.582 h -9.677 v 0.854 h 1.043 v 12.222 c 0,1.445 -0.306,2.17 -0.911,2.17 -0.482,0 -1.047,-0.398 -1.682,-1.187 v -13.205 h 1.042 v -0.854 h -9.707 v 0.854 h 1.891 v 15.638 h -1.891 v 0.842 h 5.672 c 0.936,0 1.932,0.184 2.993,0.561 v -2.819 c 1.667,1.707 3.344,2.57 5.032,2.57 1.174,0 2.19,-0.414 3.049,-1.232 0.859,-0.826 1.287,-2.264 1.287,-4.32 v -11.24 h 1.859 z" /><path
           inkscape:connector-curvature="0"
           id="path951"
           style="fill:#27ae60;fill-opacity:1;fill-rule:nonzero;stroke:none"
           d="m 389.2891,279.5566 h 69.604 c 0.15,0 0.272,-0.121 0.272,-0.271 0,-0.151 -0.122,-0.272 -0.272,-0.272 h -69.456 c -0.037,0.184 -0.086,0.365 -0.148,0.543 m -44.737,-0.543 c -0.15,0 -0.272,0.121 -0.272,0.272 0,0.15 0.122,0.271 0.272,0.271 h 37.98 c -0.116,-0.176 -0.224,-0.359 -0.325,-0.543 z" /></g></g></g></svg>